<svg xmlns="http://www.w3.org/2000/svg" id="a" viewBox="0 0 404.57 100"><defs><style>.b{fill:#fff;}.c{fill:#162943;}</style></defs><path class="c" d="M133.81,25.47c-1.91,.05-37.05,.05-38.96,0,.17,1.99,.3,3.94,.36,5.82,.06,1.88,.1,3.33,.1,4.33s-.01,1.93-.04,2.79-.07,1.62-.16,2.28h1.5c.57-3.47,1.28-6.19,2.14-8.16s2.02-3.4,3.45-4.26c1.43-.87,3.27-1.3,5.52-1.3h2.14v41.91c0,1.78-.17,3.1-.52,3.96s-1.02,1.44-2.02,1.72c-1,.28-2.42,.44-4.29,.49v1.3c1.22-.09,2.81-.14,4.77-.16s4.09-.04,6.34-.04,4.29,.01,6.37,.04,3.78,.07,5.07,.16v-1.3c-1.91-.04-3.36-.21-4.36-.49-1-.28-1.66-.86-1.98-1.72s-.49-2.19-.49-3.96V26.97h2.08c2.3,0,4.15,.43,5.56,1.3,1.42,.86,2.55,2.29,3.41,4.26,.86,1.97,1.6,4.69,2.21,8.16h1.49c-.05-.65-.09-1.4-.14-2.28-.05-.87-.06-1.8-.06-2.79s.04-2.44,.1-4.33c.11-1.88,.22-3.83,.39-5.82"></path><path class="c" d="M168.94,70.31v-17.5c0-2.21-.16-3.97-.49-5.27-.32-1.3-.86-2.36-1.59-3.19-.69-.74-1.6-1.34-2.73-1.82s-2.58-.71-4.36-.71c-2.25,0-4.34,.5-6.28,1.5s-3.43,2.71-4.52,5.14V25.43c-1.22,.31-2.53,.53-3.96,.68-1.43,.15-2.97,.22-4.61,.22-1.3,0-2.65-.06-4.04-.2v1.37c1.69,0,2.85,.47,3.48,1.4s.95,2.37,.95,4.32v37.07c0,1.82-.33,3.05-1.01,3.7s-1.81,.97-3.41,.97v1.37c.82-.04,2.07-.1,3.74-.16s3.29-.1,4.85-.1,3.06,.04,4.52,.1c1.45,.06,2.55,.12,3.29,.16v-1.37c-1.34,0-2.31-.32-2.89-.97-.59-.65-.87-1.88-.87-3.7v-16.91c0-2.65,.7-4.8,2.12-6.47,1.4-1.67,3.15-2.5,5.23-2.5,1.26,0,2.2,.27,2.83,.81s1.05,1.28,1.27,2.21,.32,1.98,.32,3.16v19.7c0,1.82-.28,3.05-.85,3.7s-1.54,.97-2.93,.97v1.37c.78-.04,1.93-.1,3.45-.16s3.05-.1,4.61-.1,3.14,.04,4.75,.1c1.6,.06,2.79,.12,3.58,.16v-1.37c-1.6,0-2.74-.32-3.41-.97-.7-.65-1.03-1.88-1.03-3.7"></path><path class="c" d="M200.44,43.61c-2.33-1.19-4.97-1.8-7.97-1.8s-5.66,.59-8,1.8c-2.34,1.19-4.18,3.09-5.52,5.68-1.34,2.6-2.02,6.03-2.02,10.27s.68,7.68,2.02,10.27,3.19,4.49,5.52,5.66c2.34,1.17,5.01,1.76,8,1.76s5.65-.59,7.97-1.76,4.16-3.05,5.52-5.66,2.05-6.03,2.05-10.27-.69-7.68-2.05-10.27c-1.35-2.6-3.2-4.49-5.52-5.68m-3.01,28.52c-1.3,2.56-2.95,3.84-4.95,3.84s-3.69-1.28-4.97-3.84-1.92-6.74-1.92-12.55,.64-10,1.92-12.59,2.94-3.88,4.97-3.88,3.64,1.29,4.95,3.88c1.3,2.58,1.96,6.78,1.96,12.59-.01,5.81-.66,9.99-1.96,12.55"></path><path class="c" d="M237.26,42.66c-.89-.57-2.01-.85-3.35-.85s-2.67,.33-3.86,1.01-2.21,1.53-3.05,2.57c-.85,1.05-1.53,2.17-2.05,3.38v-6.77c-1.22,.31-2.55,.53-4,.68s-2.98,.23-4.59,.23c-1.3,0-2.65-.06-4.04-.2v1.37c1.69,0,2.85,.47,3.48,1.4s.95,2.37,.95,4.33v20.49c0,1.82-.33,3.05-1.01,3.7s-1.81,.97-3.41,.97v1.37c.82-.04,2.07-.1,3.74-.16s3.35-.1,5.04-.1c2.03,0,4,.04,5.88,.1,1.88,.06,3.32,.12,4.33,.16v-1.37c-2.08,0-3.67-.36-4.75-1.07-1.08-.71-1.62-2.13-1.62-4.26v-16.07c0-1.3,.3-2.68,.87-4.13,.59-1.45,1.4-2.71,2.44-3.78,1.05-1.06,2.25-1.66,3.64-1.78,.6-.09,1.14,0,1.62,.26-.69,.43-1.32,1.02-1.86,1.76-.54,.74-.81,1.65-.81,2.73,0,1.22,.41,2.17,1.23,2.87,.82,.69,1.88,1.03,3.19,1.03,1.39,0,2.51-.48,3.35-1.43,.85-.95,1.27-2.14,1.27-3.58,0-.95-.22-1.87-.65-2.73-.43-.86-1.1-1.57-1.98-2.14"></path><path class="c" d="M274.75,70.31v-17.5c0-2.21-.16-3.97-.49-5.27-.32-1.3-.87-2.36-1.66-3.19-.69-.74-1.59-1.34-2.69-1.82-1.11-.48-2.57-.71-4.39-.71-2.25,0-4.33,.5-6.24,1.5s-3.41,2.73-4.49,5.2v-6.51c-1.22,.31-2.55,.53-4,.68s-2.98,.22-4.59,.22c-1.3,0-2.65-.06-4.04-.2v1.37c1.69,0,2.85,.47,3.48,1.4s.95,2.37,.95,4.33v20.49c0,1.82-.33,3.05-1.01,3.7s-1.81,.97-3.41,.97v1.37c.82-.04,2.05-.1,3.7-.16s3.27-.1,4.87-.1c1.51,0,3.01,.04,4.49,.1,1.48,.06,2.58,.12,3.32,.16v-1.37c-1.39,0-2.36-.32-2.93-.97-.57-.65-.85-1.88-.85-3.7v-16.92c0-2.56,.69-4.69,2.08-6.41,1.39-1.71,3.15-2.57,5.27-2.57,1.22,0,2.14,.27,2.79,.81s1.08,1.28,1.3,2.21c.21,.94,.32,1.98,.32,3.16v19.7c0,1.82-.28,3.05-.85,3.7s-1.54,.97-2.93,.97v1.37c.74-.04,1.87-.1,3.38-.16s3.08-.1,4.69-.1c1.51,0,3.09,.04,4.71,.1,1.62,.06,2.83,.12,3.61,.16v-1.37c-1.61,0-2.74-.32-3.42-.97-.64-.64-.98-1.87-.98-3.69"></path><path class="c" d="M313.84,73.59c-.65-.94-.97-2.37-.97-4.32V25.43c-1.22,.31-2.53,.53-3.96,.68-1.43,.15-2.97,.23-4.61,.23-1.3,0-2.65-.06-4.04-.2v1.37c1.69,0,2.85,.47,3.48,1.4s.95,2.37,.95,4.32v11.47c-.62-.75-1.34-1.35-2.21-1.78-1.51-.74-3.22-1.11-5.13-1.11-2.73,0-5.2,.65-7.42,1.96s-3.96,3.26-5.27,5.88c-1.3,2.62-1.96,5.91-1.96,9.86s.55,7.36,1.66,9.98c1.11,2.62,2.67,4.58,4.69,5.86s4.32,1.92,6.93,1.92,4.61-.69,6.18-2.08c1.1-.97,1.93-2.28,2.53-3.88v5.76c1.26-.34,2.6-.59,4.04-.71,1.43-.12,2.95-.2,4.55-.2,1.34,0,2.68,.06,4.04,.2v-1.37c-1.67,0-2.82-.47-3.47-1.39m-11.18-.79c-1.26,1.28-2.67,1.92-4.23,1.92-1.48,0-2.74-.49-3.8-1.49-1.06-1-1.87-2.61-2.44-4.85s-.85-5.17-.85-8.81c0-5.41,.7-9.44,2.12-12.06,1.4-2.62,3.29-3.94,5.62-3.94,1.3,0,2.47,.31,3.52,.91,.84,.49,1.53,1.19,2.08,2.1v21.99c-.34,1.76-1,3.19-2.02,4.22"></path><path class="c" d="M328.28,35.63c1.56,0,2.84-.43,3.84-1.3s1.5-2.02,1.5-3.45-.49-2.58-1.5-3.45c-1-.86-2.28-1.3-3.84-1.3s-2.84,.43-3.84,1.3-1.5,2.02-1.5,3.45,.49,2.58,1.5,3.45c1,.87,2.28,1.3,3.84,1.3"></path><path class="c" d="M332.83,70.31v-28.3c-1.22,.31-2.55,.53-4,.68s-2.98,.22-4.59,.22c-1.3,0-2.65-.06-4.04-.2v1.37c1.69,0,2.85,.47,3.48,1.4,.63,.94,.95,2.4,.95,4.39v20.43c0,1.82-.33,3.05-1.01,3.7-.68,.65-1.81,.97-3.42,.97v1.37c.82-.04,2.05-.1,3.7-.16s3.27-.1,4.87-.1,3.27,.04,4.87,.1c1.6,.06,2.79,.12,3.58,.16v-1.37c-1.6,0-2.74-.32-3.41-.97-.66-.64-1-1.87-1-3.69"></path><path class="c" d="M371.86,71.6l-11.18-17.47,5.46-5.68c1.17-1.26,2.36-2.24,3.58-2.97,1.22-.71,2.47-1.21,3.78-1.46v-1.3c-.48,.05-1.12,.09-1.92,.14s-1.65,.07-2.53,.1-1.72,.04-2.5,.04c-1,0-2.21-.04-3.64-.1-1.43-.06-2.73-.12-3.9-.16v1.3c1.48,.09,2.68,.41,3.61,.95,.94,.54,1.39,1.32,1.37,2.31-.02,1-.75,2.21-2.18,3.64l-4.87,4.88c-.65,.65-1.33,1.13-2.05,1.43-.65,.27-1.48,.46-2.44,.55V25.43c-1.22,.31-2.53,.53-3.96,.68-1.43,.15-2.98,.22-4.61,.22-1.3,0-2.65-.06-4.04-.2v1.37c1.7,0,2.85,.47,3.48,1.4,.63,.94,.95,2.37,.95,4.32v37.07c0,1.82-.33,3.05-1.01,3.7-.68,.65-1.81,.97-3.41,.97v1.37c.82-.04,2.07-.1,3.74-.16,1.67-.06,3.31-.1,4.91-.1s3.1,.04,4.61,.1c1.51,.06,2.65,.12,3.38,.16v-1.37c-1.48,0-2.51-.32-3.13-.97-.6-.65-.91-1.88-.91-3.7v-11.16c.82,.02,1.51,.15,2.02,.39,.57,.28,1.14,.9,1.76,1.86l6.77,11.38c.43,.65,.49,1.18,.16,1.59-.32,.42-.92,.62-1.78,.62v1.37c.78-.04,1.94-.1,3.48-.16s3.05-.1,4.52-.1c1.22,0,2.42,.04,3.64,.1,1.22,.06,2.1,.12,2.67,.16v-1.37c-.82-.21-1.51-.62-2.05-1.21-.58-.57-1.16-1.29-1.76-2.17"></path><path class="c" d="M399.14,71.64c-1.59,.76-3.14,1.14-4.65,1.14s-2.9-.46-4.29-1.37-2.51-2.34-3.38-4.29c-.86-1.96-1.3-4.42-1.3-7.42,0-.65,.01-1.3,.04-1.94,.01-.53,.07-1.02,.14-1.5h18.89c0-5.03-1.08-8.7-3.25-10.99-2.17-2.3-5.16-3.45-8.97-3.45-2.99,0-5.66,.7-8,2.12-2.34,1.4-4.17,3.46-5.5,6.14-1.33,2.69-1.98,6-1.98,9.95,0,3.73,.63,6.88,1.88,9.46s3.01,4.52,5.27,5.82,4.86,1.96,7.8,1.96c2.34,0,4.38-.48,6.12-1.43,1.73-.96,3.16-2.18,4.26-3.68,1.11-1.5,1.89-3,2.37-4.52l-1.24-.52c-1.21,2.24-2.61,3.74-4.18,4.5m-7.12-28.46c1.22,0,2.2,.54,2.97,1.62s1.32,2.52,1.66,4.33c.34,1.8,.48,3.77,.39,5.88h-11.53c.33-4.1,1.07-7.09,2.23-8.95,1.21-1.92,2.63-2.89,4.28-2.89"></path><rect class="c" width="79.32" height="100"></rect><path class="b" d="M76.06,96.91H3.25V3.24H76.06V96.91Zm-71.6-1.21H74.85V4.44H4.47V95.71Z"></path><path class="b" d="M65.23,30.56c0-1.23,.04-3,.11-5.33s.17-2.4,.37-4.86c-1.12,.02-51.16,.02-52.28,0,.21,2.46,.3,2.53,.37,4.86,.07,2.33,.12,4.1,.12,5.33s-.01,2.37-.04,3.45c-.02,1.07-.09,2.01-.2,2.81h1.8c.68-6.73,5-10.84,6.71-11.91s3.93-1.6,6.63-1.6h5.49v51.06c0,2.19-.74,4.76-3.04,5.32-1.22,.3-2.92,.55-5.14,.6v3.3c1.45-.11,25.46-.11,26.91,0v-3.3c-2.24-.05-3.94-.31-5.14-.6-2.3-.55-3.04-3.13-3.04-5.32V23.31h5.49c2.71,0,4.91,.53,6.63,1.6,1.72,1.07,6.03,5.18,6.71,11.91h1.8c-.1-.8-.17-1.73-.2-2.81-.04-1.06-.05-2.21-.05-3.45"></path></svg>